# xmcd
# 
# Track frame offsets:
#     187
#     37232
#     73162
#     97852
#     127962
#     170602
#     203495
#     233197
# 
# Disc length: 3687
# 
# Revision: 0
# Processed by: cddbd v1.5.2PL0 Copyright (c) Steve Scherf et al.
# Submitted via: BonkEnc v1.0.8
# 
DISCID=690e6508
DTITLE=Gary Thomas - Till We Have Faces
DYEAR=1992
DGENRE=Contemporary Jazz
TTITLE0=Angel Eyes
TTITLE1=The Best Thing For You
TTITLE2=Lush Life
TTITLE3=Bye Bye Baby
TTITLE4=Lament
TTITLE5=Peace
TTITLE6=It's You Or No One
TTITLE7=You Don't Know What Love Is
EXTD=name\tvorname\tinstrument\nthomas\tgary\tts\nmetheny\tpat\tgit\nmurphy\ttim\t\ncox\tanthony\tb\nhoward\ted\tb\ncarrington\tterri\t\nmoss\tsteve\t YEAR: 1993
EXTT0=
EXTT1=
EXTT2=
EXTT3=
EXTT4=
EXTT5=
EXTT6=
EXTT7=
PLAYORDER=
